<svg xmlns="http://www.w3.org/2000/svg" viewBox="0 0 18 18" class="__web-inspector-hide-shortcut__"><path d="M1.487 10.884h3.845a20.092 20.092 0 010-3.768H1.487A7.76 7.76 0 001.256 9c0 .65.08 1.28.23 1.884zm.432 1.256a7.763 7.763 0 005.017 4.326c-.65-1.055-1.16-2.579-1.444-4.326H1.919zm14.594-1.256A7.76 7.76 0 0016.744 9c0-.65-.08-1.28-.23-1.884h-3.846a20.092 20.092 0 010 3.768h3.845zm-.432 1.256h-3.573c-.284 1.747-.793 3.27-1.444 4.326a7.763 7.763 0 005.017-4.326zm-9.613-1.256h5.064a18.28 18.28 0 000-3.768H6.468a18.28 18.28 0 000 3.768zm.176 1.256C7.116 14.808 8.12 16.744 9 16.744c.88 0 1.884-1.936 2.356-4.604H6.644zM1.919 5.86h3.573c.284-1.747.793-3.27 1.444-4.326A7.763 7.763 0 001.92 5.86zm14.162 0a7.763 7.763 0 00-5.017-4.326c.65 1.055 1.16 2.579 1.444 4.326h3.573zm-9.437 0h4.712C10.884 3.192 9.88 1.256 9 1.256c-.88 0-1.884 1.936-2.356 4.604zM9 18A9 9 0 119 0a9 9 0 010 18z" fill="" fill-rule="nonzero"></path></svg>