<svg xmlns="http://www.w3.org/2000/svg" viewBox="0 0 26 26" id="instagram"><path fill-rule="evenodd" clip-rule="evenodd" d="M26 13c0 7.18-5.82 13-13 13S0 20.18 0 13 5.82 0 13 0s13 5.82 13 13zM9.7 5.053c.853-.039 1.126-.048 3.298-.048 2.171 0 2.444.01 3.297.048.851.039 1.432.174 1.941.372a3.92 3.92 0 011.417.922c.444.445.718.891.922 1.417.198.509.333 1.09.372 1.941.039.853.048 1.126.048 3.297 0 2.172-.01 2.445-.048 3.298-.039.851-.174 1.433-.372 1.941a3.92 3.92 0 01-.922 1.417c-.445.444-.891.718-1.417.922-.509.198-1.09.333-1.941.372-.853.039-1.126.048-3.298.048-2.171 0-2.444-.01-3.297-.048-.851-.039-1.432-.174-1.941-.372a3.92 3.92 0 01-1.417-.922 3.92 3.92 0 01-.922-1.417c-.198-.508-.333-1.09-.372-1.941C5.01 15.447 5 15.174 5 13.002c0-2.171.01-2.444.048-3.297.039-.851.174-1.432.372-1.941a3.92 3.92 0 01.922-1.417 3.92 3.92 0 011.417-.922c.509-.198 1.09-.333 1.941-.372zm3.298 1.393c2.135 0 2.388.008 3.231.047.78.035 1.203.166 1.485.275.373.145.64.318.92.598.28.28.453.547.598.92.11.282.24.705.275 1.485.039.843.047 1.096.047 3.231 0 2.136-.008 2.389-.047 3.232-.035.78-.166 1.203-.275 1.485-.145.373-.318.64-.598.92-.28.28-.547.453-.92.598-.282.11-.705.24-1.485.275-.843.039-1.096.047-3.231.047-2.136 0-2.389-.008-3.232-.047-.78-.035-1.203-.166-1.485-.275a2.479 2.479 0 01-.92-.598 2.479 2.479 0 01-.598-.92c-.11-.282-.24-.705-.275-1.485-.039-.843-.047-1.096-.047-3.232 0-2.135.008-2.388.047-3.231.035-.78.165-1.203.275-1.485.145-.373.318-.64.598-.92.28-.28.546-.453.92-.598.282-.11.705-.24 1.485-.275.843-.039 1.096-.047 3.232-.047zM8.89 13.002a4.107 4.107 0 118.213 0 4.107 4.107 0 01-8.213 0zm4.107 2.666a2.666 2.666 0 110-5.331 2.666 2.666 0 010 5.331zm4.269-5.975a.96.96 0 100-1.92.96.96 0 000 1.92z" fill=""></path></svg>