<svg xmlns="http://www.w3.org/2000/svg" xmlns:xlink="http://www.w3.org/1999/xlink" version="1.1" id="Layer_1" x="0px" y="0px" viewBox="0 0 24 24" style="enable-background:new 0 0 24 24;" xml:space="preserve">
	<style type="text/css">
		.st0{fill:#919191;}
		.st1{fill:#DADADA;}
	</style>
	<path class="st0" d="M11.4,17.8H8.2c-0.4,0-0.6-0.3-0.6-0.7s0.3-0.7,0.6-0.7h3.2c0.4,0,0.6,0.3,0.6,0.7S11.8,17.8,11.4,17.8z"/>
	<path class="st1" d="M3.3,22.1c-0.3,0-0.6-0.1-0.9-0.4c-0.5-0.5-0.5-1.3,0-1.8l4.7-4.7c0.5-0.5,1.3-0.5,1.8,0c0.5,0.5,0.5,1.3,0,1.8  l-4.7,4.7C4,22,3.6,22.1,3.3,22.1z"/>
	<path class="st1" d="M13.5,19.3c-4.8,0-8.7-3.9-8.7-8.7C4.8,5.9,8.7,2,13.5,2s8.7,3.9,8.7,8.7C22.1,15.4,18.3,19.3,13.5,19.3z   M13.5,4.5c-3.4,0-6.1,2.8-6.1,6.1c0,3.4,2.8,6.1,6.1,6.1s6.1-2.8,6.1-6.1C19.6,7.3,16.9,4.5,13.5,4.5z"/>
</svg>