<svg xmlns="http://www.w3.org/2000/svg" id="support" viewBox="0 0 19 18" xml:space="preserve"><path class="nfst0" d="M16.9 5.6h-.6C15.8 2.3 13 0 9.5 0S3.2 2.3 2.7 5.6h-.6c-.9 0-1.7.8-1.7 1.7v3.5c0 .9.8 1.7 1.7 1.7h3.7c.6 0 1-.4 1-1V6.6c0-.6-.4-1-1-1H4.7C5.2 3.5 7.1 2 9.5 2s4.3 1.5 4.8 3.6h-1.1c-.6 0-1 .4-1 1v4.9c0 .6.4 1 1 1h1.1c-.3 1.2-1.1 1.9-2.2 2.3-.4-.5-.9-.8-1.6-.8H8.4c-1.1 0-2 .9-2 2s.9 2 2 2h2.1c.8 0 1.6-.5 1.9-1.3 2.3-.6 3.7-2.1 3.9-4.3h.6c.9 0 1.7-.8 1.7-1.7V7.3c0-1-.8-1.7-1.7-1.7zM4.8 10.5H2.4V7.6h2.4v2.9zm11.8 0h-2.4V7.6h2.4v2.9z" fill=""></path></svg>