<svg xmlns="http://www.w3.org/2000/svg" viewBox="0 0 24 24"><path d="M7.352 9.077h8.486a.65.65 0 01.653.65.65.65 0 01-.653.65H7.352a.65.65 0 110-1.3zM7.352 7.778h4.57a.65.65 0 100-1.299h-4.57a.65.65 0 00-.653.65c0 .359.292.65.653.65zM7.352 11.675h6.136a.65.65 0 01.653.65.65.65 0 01-.653.65H7.352a.65.65 0 01-.652-.65c0-.36.292-.65.652-.65zM11.008 14.273H7.352a.65.65 0 00-.653.65c0 .359.292.65.653.65h3.656a.65.65 0 00.653-.65c0-.36-.293-.65-.653-.65zM7.352 16.871h3.656c.36 0 .653.29.653.65a.65.65 0 01-.653.65H7.352a.65.65 0 01-.653-.65c0-.36.292-.65.653-.65zM17.334 12.856c.35.742.127.912-.236.912-.128 0-.2-.096-.283-.21-.118-.159-.26-.351-.62-.352h-.002v3.86c0 .687-.746 1.243-1.666 1.243-.92 0-1.666-.556-1.666-1.243s.745-1.244 1.666-1.244h.833v-3.73c0-.23.186-.415.417-.415.01-.001.962-.085 1.557 1.178z" fill=""></path><path fill-rule="evenodd" clip-rule="evenodd" d="M20.078 5.903L16.47 2.267A.9.9 0 0015.831 2H4.853C4.201 2 3.5 2.474 3.5 3.515v16.97C3.5 21.32 4.174 22 5.004 22h13.835c.83 0 1.504-.68 1.504-1.515V6.545a.912.912 0 00-.265-.642zm-.977 14.865H4.741V3.232h9.791v3.572c0 .538.439.975.98.975h3.59v12.989zm-.015-14.221h-3.312V3.243l3.312 3.304z" fill=""></path></svg>