<svg xmlns="http://www.w3.org/2000/svg" viewBox="0 0 40 40" id="twitter"><path fill="" d="M20 0C9 0 0 9 0 20s9 20 20 20c10.1 0 18.4-7.4 19.8-17.1.1-.7.2-1.3.2-2v-.8C40 9 31 0 20 0zm9.2 16.4v.6c0 5.7-4.3 12.3-12.3 12.3-2.4 0-4.7-.7-6.6-1.9.3 0 .7.1 1 .1 2 0 3.9-.7 5.4-1.8-1.9 0-3.5-1.3-4-3 .3.1.5.1.8.1.4 0 .8-.1 1.1-.2-2-.4-3.5-2.1-3.5-4.2v-.1c.6.3 1.3.5 2 .5-1.2-.8-1.9-2.1-1.9-3.6 0-.8.2-1.5.6-2.2 2.1 2.6 5.3 4.3 8.9 4.5-.1-.3-.1-.6-.1-1 0-2.4 1.9-4.3 4.3-4.3 1.2 0 2.4.5 3.2 1.4 1-.2 1.9-.6 2.7-1-.3 1-1 1.9-1.9 2.4.9-.1 1.7-.3 2.5-.7-.6.7-1.3 1.5-2.2 2.1z"></path></svg>