<svg xmlns="http://www.w3.org/2000/svg" viewBox="0 0 26 26" id="youtube"><path fill-rule="evenodd" clip-rule="evenodd" d="M13 26c7.18 0 13-5.82 13-13S20.18 0 13 0 0 5.82 0 13s5.82 13 13 13zm8.82-16.411s-.176-1.176-.715-1.694c-.617-.612-1.302-.675-1.688-.711a5.859 5.859 0 01-.116-.011C16.782 7 13.004 7 13.004 7h-.008S9.218 7 6.7 7.173l-.116.011c-.386.036-1.07.099-1.688.711-.54.518-.715 1.694-.715 1.694S4 10.969 4 12.35v1.295c0 1.38.18 2.76.18 2.76s.176 1.177.715 1.694c.568.564 1.283.645 1.74.697.094.011.177.02.245.033C8.32 18.959 13 19 13 19s3.782-.005 6.301-.178l.116-.011c.386-.036 1.07-.1 1.688-.712.54-.517.715-1.693.715-1.693s.18-1.38.18-2.761V12.35c0-1.38-.18-2.761-.18-2.761zM11 10v5l5-2.491L11 10z" fill=""></path></svg>