<svg width="40" height="40" viewBox="0 0 40 40" xmlns="http://www.w3.org/2000/svg">
    <path d="M19.995 0C13.23 0 7.248 3.364 3.628 8.51H17.84s1.019.308 1.019 1.445c0 1.136-1.055 1.445-1.055 1.445H1.928c-.282.59-.537 1.21-.764 1.827h24.951s1.018.319 1.018 1.455c0 1.136-1.054 1.445-1.054 1.445H.364a21.925 21.925 0 00-.282 1.91h35.98s1.02.309 1.02 1.445c0 1.136-1.056 1.445-1.056 1.445H0c.027.628.09 1.246.173 1.855h33.08s1.018.309 1.018 1.445c0 1.137-1.054 1.446-1.054 1.446H.809c.191.645.41 1.273.664 1.882h21.405s1.018.309 1.018 1.445c0 1.136-1.054 1.445-1.054 1.445H2.955C6.465 36.182 12.785 40 19.995 40 31.044 40 40 31.046 40 20 40 8.955 31.043 0 19.995 0z" fill=""></path>
</svg>
